<?xml version="1.0" encoding="utf-8"?>
<!-- Generator: Adobe Illustrator 16.0.0, SVG Export Plug-In . SVG Version: 6.00 Build 0)  -->
<!DOCTYPE svg PUBLIC "-//W3C//DTD SVG 1.1//EN" "http://www.w3.org/Graphics/SVG/1.1/DTD/svg11.dtd">
<svg version="1.1" id="Layer_1" xmlns="http://www.w3.org/2000/svg" xmlns:xlink="http://www.w3.org/1999/xlink" x="0px" y="0px"
	 width="960px" height="560px" viewBox="0 0 960 560" enable-background="new 0 0 960 560" xml:space="preserve">
<g>
	<path fill="#9E005D" d="M247.5,329.696h-33.3l17.3-51.899h20.9l-0.7,2h12.4l-3.5,10.7h-12.4l-9.5,28.5h12.4L247.5,329.696z
		 M241.3,248.497h33.3l-3.6,10.6h-12.4l-5.2,15.5h-20.8L241.3,248.497z"/>
	<path fill="#9E005D" d="M275.599,329.696h-18.2l17.3-51.799h26.9l-0.6,11.1h0.9l3.6-11.1h17.8l-17.3,51.799h-18.4l2.3-41.6h-0.9
		L275.599,329.696z M284.499,248.497h18.6l-1.4,26.1h-25.9L284.499,248.497z M333.099,248.497l-8.7,26.1h-17.9l8.6-26.1H333.099z"/>
	<path fill="#9E005D" d="M337.499,329.696h-20.9l17.2-51.6h20.9L337.499,329.696z M343.699,248.497h20.9l-8.8,26.1h-20.8
		L343.699,248.497z"/>
	<path fill="#9E005D" d="M365.598,330.097c-6.6,0-10.984-1.033-13.15-3.1c-2.167-2.066-2.384-5.633-0.65-10.7l12.8-38.399h20.7
		l-12.7,38.1c-0.467,1.268-0.5,2.15-0.1,2.65c0.4,0.5,1.233,0.75,2.5,0.75c1.2,0,2.133-0.233,2.8-0.701
		c0.666-0.465,1.233-1.365,1.7-2.699l5.9-17.7h-3.1l3.5-10.7h24l-14,42.1h-8.7l-1.9-4.699c-1.4,1-2.784,1.816-4.15,2.449
		c-1.367,0.635-2.817,1.15-4.35,1.551c-1.534,0.4-3.2,0.684-5,0.85S367.863,330.097,365.598,330.097z M369.098,264.297
		c2.4-7.2,5.366-11.7,8.9-13.5c3.466-1.866,10.5-2.8,21.1-2.8c10,0,16.166,0.967,18.5,2.9c2.333,1.934,2.333,6.399,0,13.399
		l-3.3,9.899h-20.9l4-11.899c0.533-1.399,0.615-2.333,0.25-2.8c-0.367-0.466-1.185-0.7-2.45-0.7c-1.2,0-2.167,0.25-2.9,0.75
		c-0.734,0.5-1.334,1.417-1.8,2.75l-4,11.899h-20.7L369.098,264.297z"/>
	<path fill="#9E005D" d="M424.197,329.696h-18.6l17.4-52h30l-1.3,9.701h1l5.1-9.701h30.201l-17.4,52h-18.6l16.7-48h-1.2l-23.9,48
		h-11l8.1-48h-1.2L424.197,329.696z M432.697,248.497h24.3l-3.6,26.1h-29.4L432.697,248.497z M497.697,248.497l-8.8,26.1h-29.5
		l14-26.1H497.697z"/>
	<path fill="#9E005D" d="M516.897,301.597l6-24h16.8l-9.5,52.1h-20.199l4.199-17.299h-8.699l-7.201,17.299h-20.1l25-52.1h16.801
		l-10.101,24H516.897z M517.297,248.497h27.701l-4.801,26.1h-16.699l2.6-10h-0.6l-4.201,10h-16.699L517.297,248.497z"/>
</g>
</svg>
